<svg width="489" height="489" viewBox="0 0 489 489" xmlns="http://www.w3.org/2000/svg"><g fill="none" fill-rule="evenodd"><path d="M296.314 78.298l20.16-29.272c1.196-1.74.898-4.024-.667-5.104-1.563-1.074-3.805-.543-4.993 1.2l-20.95 30.408c-13.808-5.44-29.14-8.47-45.3-8.47-16.16 0-31.496 3.028-45.302 8.47l-20.948-30.41c-1.2-1.74-3.44-2.273-5.003-1.2-1.563 1.078-1.86 3.363-.663 5.105l20.166 29.272c-32.063 14.916-54.548 43.26-57.413 76.34h218.316c-2.855-33.08-25.34-61.423-57.402-76.34" fill="#9FBF3B"/><path d="M198.956 124.438c-6.673 0-12.08-5.407-12.08-12.08 0-6.67 5.404-12.08 12.08-12.08 6.668 0 12.073 5.408 12.073 12.08s-5.406 12.08-12.074 12.08M290.16 124.438c-6.667 0-12.073-5.407-12.073-12.08 0-6.672 5.406-12.08 12.074-12.08 6.676 0 12.08 5.41 12.08 12.08 0 6.672-5.406 12.08-12.08 12.08" fill="#FFF"/><path d="M121.383 292.598c0 13.45-10.904 24.354-24.355 24.354-13.45 0-24.354-10.904-24.354-24.354V194.09c0-13.45 10.904-24.354 24.354-24.354s24.355 10.904 24.355 24.354v98.508zM135.396 170.49v177.914c0 10.566 8.566 19.133 19.135 19.133h22.634v54.744c0 13.452 10.903 24.355 24.354 24.355 13.45 0 24.355-10.903 24.355-24.354v-54.743h37.37v54.744c0 13.452 10.903 24.355 24.355 24.355s24.354-10.903 24.354-24.354v-54.743h22.633c10.57 0 19.137-8.562 19.137-19.133V170.49H135.396zM367.734 292.598c0 13.45 10.903 24.354 24.354 24.354 13.45 0 24.354-10.904 24.354-24.354V194.09c0-13.45-10.904-24.354-24.354-24.354s-24.354 10.904-24.354 24.354v98.508z" fill="#9FBF3B"/></g></svg>