<svg width="64" height="64" viewBox="0 0 64 64" xmlns="http://www.w3.org/2000/svg"><title>64x64</title><g fill="none" fill-rule="evenodd"><path d="M62.716 37.834l-8.184.956c-.453 1.5-1.05 2.938-1.78 4.296l4.392 5.743c.6.782.525 1.887-.172 2.583l-5.56 5.56c-.38.38-.883.575-1.39.575-.418 0-.84-.133-1.193-.404l-5.744-4.392c-1.358.728-2.795 1.327-4.296 1.78l-.955 7.166c-.13.977-.963 1.706-1.95 1.706h-7.86c-.986 0-1.82-.73-1.95-1.706l-.954-7.166c-1.5-.453-2.938-1.05-4.296-1.78l-5.743 4.392c-.353.27-.773.404-1.193.404-.506 0-1.01-.194-1.39-.576l-5.56-5.56c-.696-.695-.77-1.8-.17-2.583l4.39-5.744c-.727-1.358-1.325-2.795-1.78-4.296l-7.165-.956c-.976-.13-1.706-.963-1.706-1.948v-7.862c0-.985.73-1.818 1.706-1.948l7.166-.956c.454-1.5 1.052-2.938 1.78-4.296L6.766 15.08c-.598-.78-.525-1.886.172-2.583l5.56-5.56c.38-.38.883-.575 1.39-.575.42 0 .84.133 1.193.404l5.744 4.392c1.358-.728 2.796-1.326 4.297-1.78l.956-7.166c.13-.976.963-1.706 1.948-1.706h7.862c.986 0 1.818.73 1.95 1.706l.954 7.166c1.5.454 2.938 1.052 4.296 1.78l5.743-4.392c.353-.27.774-.404 1.193-.404.506 0 1.01.195 1.39.576l5.56 5.56c.697.696.77 1.8.172 2.583l-4.392 5.744c.728 1.358 1.326 2.796 1.78 4.296l7.165.956c.977.13 1.706.963 1.706 1.948 0 0 .29 9.68-.688 9.81z" fill="#6E6E6E"/><g fill="#A3C629"><path d="M36.24 16.375l1.796-2.608c.106-.155.08-.36-.06-.455-.14-.096-.338-.048-.445.107l-1.865 2.708c-1.23-.484-2.596-.754-4.036-.754-1.44 0-2.807.27-4.037.754l-1.867-2.71c-.107-.154-.306-.202-.445-.106-.14.096-.165.3-.06.455l1.798 2.608c-2.857 1.33-4.86 3.854-5.115 6.8h19.45c-.253-2.946-2.257-5.47-5.113-6.8zm-8.675 4.11c-.594 0-1.076-.48-1.076-1.075s.48-1.077 1.075-1.077 1.076.482 1.076 1.077c0 .594-.48 1.076-1.075 1.076zm8.127 0c-.595 0-1.076-.48-1.076-1.075s.48-1.077 1.076-1.077c.594 0 1.076.482 1.076 1.077 0 .594-.482 1.076-1.076 1.076zM20.654 35.468c0 1.2-.972 2.17-2.17 2.17s-2.17-.97-2.17-2.17v-8.776c0-1.2.972-2.17 2.17-2.17s2.17.97 2.17 2.17v8.776M21.902 40.44c0 .942.763 1.705 1.705 1.705h2.017v4.878c0 1.2.97 2.17 2.17 2.17 1.198 0 2.17-.97 2.17-2.17v-4.878h3.33v4.878c0 1.2.97 2.17 2.17 2.17 1.198 0 2.17-.97 2.17-2.17v-4.878h2.016c.94 0 1.705-.762 1.705-1.705V24.59H21.902v15.85zM42.603 35.468c0 1.2.97 2.17 2.17 2.17 1.198 0 2.17-.97 2.17-2.17v-8.776c0-1.2-.972-2.17-2.17-2.17-1.2 0-2.17.97-2.17 2.17v8.776"/></g></g></svg>