<svg width="404" height="427" viewBox="0 0 404 427" xmlns="http://www.w3.org/2000/svg"><title>Artboard 1</title><g fill="none" fill-rule="evenodd"><path fill="#F2F2F2" d="M0 0h404v427H0z"/><path d="M366.43 246.45l-39.63 5.284c-2.51 8.3-5.815 16.25-9.844 23.76l24.288 31.764c3.31 4.33 2.904 10.44-.95 14.29l-30.745 30.746c-2.11 2.11-4.893 3.186-7.69 3.186-2.317 0-4.643-.736-6.602-2.236l-31.763-24.288c-7.51 4.026-15.46 7.335-23.76 9.843l-5.284 39.63c-.722 5.402-5.326 9.436-10.776 9.436h-43.482c-5.45 0-10.057-4.034-10.775-9.435l-5.284-39.63c-8.3-2.51-16.252-5.815-23.762-9.844l-31.762 24.288c-1.96 1.5-4.283 2.236-6.603 2.236-2.797 0-5.58-1.075-7.687-3.186L63.572 321.55c-3.854-3.852-4.26-9.963-.95-14.292l24.29-31.763c-4.027-7.51-7.336-15.46-9.844-23.76l-39.633-5.286c-5.4-.72-9.435-5.327-9.435-10.776v-43.482c0-5.45 4.035-10.057 9.435-10.776l39.633-5.285c2.508-8.297 5.817-16.25 9.843-23.76L62.623 120.61c-3.31-4.327-2.904-10.436.947-14.29l30.748-30.75c2.107-2.11 4.89-3.184 7.687-3.184 2.32 0 4.644.74 6.603 2.235l31.765 24.29c7.508-4.028 15.46-7.334 23.76-9.842l5.284-39.633c.718-5.4 5.325-9.435 10.775-9.435h43.482c5.45 0 10.054 4.035 10.777 9.435l5.284 39.633c8.3 2.508 16.252 5.817 23.76 9.843l31.764-24.288c1.96-1.5 4.285-2.235 6.6-2.235 2.8 0 5.583 1.074 7.69 3.182l30.75 30.748c3.853 3.85 4.258 9.962.95 14.29l-24.29 31.765c4.027 7.508 7.333 15.46 9.84 23.758l39.633 5.286c5.402.72 9.436 5.326 9.436 10.776 0 0-4.034 53.54-9.435 54.257z" fill="#E6E6E6"/><path d="M201.46 301.96c-48.878 0-88.5-39.623-88.5-88.5 0-48.878 39.622-88.5 88.5-88.5 48.877 0 88.5 39.622 88.5 88.5 0 48.877-39.623 88.5-88.5 88.5z" fill="#F2F2F2"/><g fill="#E6E6E6"><path d="M219.76 148.573l7.308-10.61c.434-.63.325-1.46-.24-1.85-.57-.39-1.38-.198-1.812.434l-7.594 11.022c-5.004-1.972-10.563-3.07-16.42-3.07-5.857 0-11.417 1.097-16.42 3.07l-7.595-11.024c-.435-.63-1.246-.824-1.813-.434-.567.39-.674 1.218-.24 1.85l7.31 10.61c-11.624 5.408-19.773 15.68-20.812 27.673h79.136c-1.034-11.992-9.185-22.265-20.808-27.672zm-35.29 16.725c-2.418 0-4.38-1.96-4.38-4.378 0-2.42 1.96-4.38 4.38-4.38 2.417 0 4.376 1.96 4.376 4.38 0 2.418-1.96 4.378-4.377 4.378zm33.06 0c-2.417 0-4.376-1.96-4.376-4.378 0-2.42 1.96-4.38 4.377-4.38 2.42 0 4.38 1.96 4.38 4.38 0 2.418-1.96 4.378-4.38 4.378zM156.35 226.253c0 4.875-3.95 8.828-8.827 8.828-4.875 0-8.83-3.952-8.83-8.827v-35.708c0-4.874 3.955-8.828 8.83-8.828 4.876 0 8.828 3.954 8.828 8.828v35.708M161.43 246.48c0 3.83 3.105 6.937 6.937 6.937h8.203v19.844c0 4.878 3.954 8.83 8.828 8.83 4.877 0 8.83-3.952 8.83-8.83v-19.843h13.545v19.844c0 4.878 3.952 8.83 8.83 8.83 4.875 0 8.827-3.952 8.827-8.83v-19.843h8.203c3.832 0 6.938-3.103 6.938-6.936v-64.49h-79.14v64.49zM245.65 226.253c0 4.875 3.95 8.828 8.827 8.828 4.875 0 8.83-3.952 8.83-8.827v-35.708c0-4.874-3.955-8.828-8.83-8.828-4.876 0-8.828 3.954-8.828 8.828v35.708"/></g></g></svg>