<svg width="1440" height="38" viewBox="0 0 1440 38" xmlns="http://www.w3.org/2000/svg"><path d="M1433.693 34.27c-4.433-.242-8.71-.246-12.816 2.09-2.463 1.4-5.415 2.06-7.77-.704-6.583.617-11.597-3.545-17.455-3.712-1.786-.052-3.965-.497-5.235-1.598-2.608-2.262-5.467-2.916-8.717-2.916-2.845.002-5.712.06-8.526-.27-1.667-.194-3.248-1.098-4.87-1.68-7.84-1.394-12.474-1.165-16.46 2.816-3.117 3.115-7.28 4.313-11.945 3.635-3.104-.45-6.31-.255-9.473-.264-2.115-.005-4.09-.32-6.02 1.63-1.07 1.08-3.982 1.218-5.687.652-5.055-1.677-9.983-3.78-14.835-5.995-2.154-.983-3.932-1.352-6.266-.45-1.57.605-3.692.5-5.355.005-3.21-.955-6.212-2.614-9.425-3.552-1.24-.36-2.828.41-4.24.736-1.782.41-3.53.987-5.324 1.293-8.348-3.848-14.443-3.986-20.702-.393-2.794 1.602-5.91 1.077-8.79-.414-1.773-.916-3.538-1.88-5.39-2.61-3.865-1.527-7.63-1.192-11.194.998-1.703 1.047-3.415 2.08-5.097 3.157-3.156 2.02-6.497 2.452-9.932.94-4.41-1.94-8.79-1.957-13.182-.115-4.088 1.714-7.684 1.178-11.21-1.594-1.496-1.174-3.623-1.54-5.438-2.335-2.435-1.07-4.83-2.227-7.272-3.28-5.732-.99-8.582-.91-11.428-.92-2.604-.01-5.34.465-7.246-2.047-9.446-.768-18.247-3.13-26.36 1.863-2.554 1.57-5.116 2.4-8.035.98-1.72-.838-3.175-.666-4.262 1.202-1.552 2.67-4.003 3.378-7 3.07-4.084-.417-8.187-.745-12.288-.842-1.27-.03-2.72.585-3.804 1.32-1.797 1.22-3.338 1.677-5.517.712-1.257-.555-3.01-.08-4.53.053-7.442-1.3-13.042-.01-17.345-3.56-1.263-1.04-2.946-1.605-4.483-2.284-1.88-.83-3.688-.785-5.24.78-1.86 1.874-3.778 1.588-5.61.03-2.516-2.142-4.885-1.74-7.48-.05-3.068 1.996-6.246 3.837-9.475 5.575-1.86 1.006-3.705.84-5.604-.474-2.758-1.91-5.925-2.147-9.065-.974-2.454.918-4.824 2.066-7.22 3.136-2.156.96-4.128 2.01-6.782 1.17-1.344-.423-3.308.347-4.732 1.08-3.404 1.75-6.576 2.875-9.81-.343-6.837 4.376-12.434 5.33-18.187 5.27-4.818-.052-9.67-.57-14.433-1.334-3.73-.6-7.294-.917-10.834.63-3.66 1.603-7.03 1.796-10.158-1.376-5.072-.26-6.323.69-7.65 1.317-2.283 1.078-4.41 1.273-6.218-.96-2.587-3.187-5.915-4.11-9.887-3.167-2.805.666-4.958-.226-6.23-2.94-.39-.83-.94-1.587-1.068-1.796-6.028 1.205-11.625 2.5-17.283 3.393-3.938.62-7.694-.018-10.86-2.942-1.9-1.754-4.098-2.443-6.467-.268-10.394.227-17.245 1.172-23.973 3.8-2.065.808-4.78.41-7.106.014-3.472-.59-6.222.03-9.006 2.378-1.887 1.59-4.623 2.19-6.997 3.19-5.307-1.01-9.345-2.204-13.423-3.25-5.797 1.834-8.21 1.195-10.22-.812-2.936-2.936-6.127-4.115-10.272-3.092-2.92.72-5.413-.417-7.107-2.956-1.54-2.312-3.668-3.15-6.417-3.313-1.514-.093-2.934-1.253-4.465-1.708-5.102-.243-6.52.643-7.994.728-3.437.203-6.86-.233-10.106 1.69-2.21 1.308-4.368.002-5.894-1.72-1.64-1.854-3.484-2.322-5.887-2.145-3.403.252-6.724.502-10.165-1.072-1.814-.828-4.618.445-6.964.836-2.155.355-4.278.917-6.44 1.184-5.318.656-10.648 1.206-15.975 1.773-4.077.434-8.193.61-12.22 1.31-2.835.495-5.76 1.286-8.27 2.635-3.987 2.145-7.87 2.722-12.105 1.137-1.87-.7-3.874-1.094-5.66-1.953-5.806-2.795-11.54-2.447-17.427-.223-5.606 2.117-11.307 3.985-16.982 5.91-3.59 1.22-7.203 1.272-10.86.146-5.147-1.586-10.108-1.4-14.954 1.332-2.93 1.652-5.874 1.534-8.867-.57-4.038-2.837-8.436-5.163-12.544-7.91-2.547-1.702-5.16-2.126-8.1-1.636-2.282.38-4.597.57-6.906.792-9.82-3.066-16.844 1.247-23.85-.13-4.93 3.662-7.58 3.873-10.35 3.54-9.46-1.134-18.984-1.588-28.333-3.863-6.226-1.516-7.598-.12-9.664 5.837-.287.832-1.69 1.638-2.686 1.8-2.62.427-5.382.16-7.933.79-2.666.657-5.01 1.343-7.332-.822-.657-.61-1.883-.617-3.214-1.01.11 1.325.186 2.21.33 3.932-2.482-.51-4.71-.964-8.023-1.643-4.895 2.812-11.418 5.042-18.39 5.846-4.724.544-9.475 1.126-13.418-2.596-6.47 1.913-11.152-.112-15.656.428-2.642.318-5.324.74-7.84 1.56-3.402 1.11-6.677 3.063-9.84-.382-6.425.852-11.545-3.424-17.523-3.483-1.58-.016-3.568-.455-4.644-1.466-2.81-2.634-6.073-3.064-9.622-3.054-2.74.01-5.483-.074-8.216-.218-6.67-4.304-11.19-2.278-15.322-2.64-.732-.065-1.624.808-2.324 1.39-4.62 3.834-9.353 7.067-15.942 5.97-3.086-.513-6.31-.238-9.472-.274-1.833-.02-3.405-.023-5.114 1.503-1.257 1.124-4.163 1.336-5.955.767-4.876-1.55-9.632-3.552-14.267-5.727-2.445-1.147-4.466-1.79-7.117-.485-1.284.632-3.298.374-4.783-.1-3.196-1.017-6.2-2.662-9.415-3.58-1.328-.38-3.014.4-4.518.74-1.686.38-3.33 1.04-5.033 1.225-8.88-3.984-14.56-3.89-20.412-.572-3.114 1.766-6.48 1.308-9.665-.44-1.836-1.006-3.754-1.907-5.717-2.63-3.462-1.278-6.85-.87-10.032.964-1.822 1.05-3.6 2.18-5.37 3.315-3.244 2.075-6.657 2.577-10.22.993-4.408-1.96-8.796-1.87-13.183-.043-3.966 1.652-7.463 1.126-10.945-1.496-1.682-1.267-4.018-1.652-6.02-2.524-2.254-.983-4.448-2.1-6.702-3.085-6.2-1.144-9.262-1.097-12.32-1.043-2.34.042-4.257-.557-6.42-1.777-2.28-1.287-5.454-1.243-8.252-1.32-4.1-.112-8.237-.054-12.303.413-1.97.227-3.904 1.39-5.687 2.414-2.686 1.54-5.298 2.542-8.336 1.01-1.773-.895-3.15-.426-4.23 1.33-1.522 2.47-3.798 3.3-6.722 2.993-4.29-.453-8.607-.74-12.92-.884-1.08-.033-2.366.517-3.24 1.2-1.832 1.437-3.458 1.863-5.756.816-1.226-.56-2.997.015-4.514.166-7.544-1.443-13.316-.048-17.62-3.858-1.063-.943-2.578-1.405-3.927-1.992-1.98-.86-3.873-.885-5.527.79-1.74 1.768-3.624 1.552-5.348.077-2.608-2.23-5.04-1.906-7.743-.103-2.958 1.973-6.057 3.76-9.187 5.452-1.964 1.06-3.89.902-5.9-.468-3.222-2.194-6.797-1.965-10.276-.51C6.107 26.472 3.068 27.92 0 29.3V.96h1440v33.38c-2.102-.017-4.21.046-6.307-.07z" fill="#FFF" fill-rule="evenodd"/></svg>