<svg width="1430" height="39" viewBox="0 0 1430 39" xmlns="http://www.w3.org/2000/svg"><path d="M1435.424 34.27c-4.435-.242-8.715-.246-12.823 2.09-2.464 1.4-5.418 2.06-7.775-.704-6.585.617-11.602-3.545-17.463-3.712-1.787-.052-3.967-.497-5.237-1.598-2.61-2.262-5.47-2.916-8.722-2.916-2.846.002-5.715.06-8.53-.27-1.668-.194-3.25-1.098-4.873-1.68-7.843-1.394-12.48-1.165-16.467 2.816-3.12 3.115-7.285 4.313-11.952 3.635-3.105-.45-6.313-.256-9.477-.265-2.116-.005-4.093-.32-6.023 1.63-1.07 1.08-3.984 1.218-5.69.652-5.057-1.677-9.988-3.78-14.842-5.995-2.155-.983-3.934-1.352-6.27-.45-1.57.605-3.692.5-5.356.005-3.213-.955-6.215-2.614-9.43-3.552-1.24-.36-2.83.41-4.243.736-1.782.41-3.53.987-5.326 1.293-8.352-3.848-14.45-3.986-20.713-.393-2.795 1.602-5.912 1.077-8.794-.414-1.774-.916-3.54-1.88-5.392-2.61-3.868-1.527-7.636-1.192-11.2.998-1.704 1.047-3.417 2.08-5.1 3.157-3.158 2.02-6.5 2.452-9.937.94-4.413-1.94-8.797-1.957-13.19-.115-4.09 1.714-7.688 1.178-11.216-1.594-1.496-1.174-3.624-1.54-5.44-2.335-2.437-1.068-4.834-2.226-7.276-3.28-5.735-.99-8.586-.91-11.434-.918-2.605-.01-5.344.464-7.25-2.048-9.45-.768-18.256-3.13-26.372 1.863-2.556 1.57-5.12 2.4-8.04.98-1.72-.838-3.176-.666-4.263 1.202-1.553 2.67-4.005 3.378-7.003 3.07-4.087-.417-8.192-.745-12.295-.842-1.27-.03-2.722.585-3.806 1.32-1.798 1.22-3.34 1.677-5.52.712-1.256-.555-3.01-.08-4.53.053-7.447-1.3-13.05-.01-17.355-3.56-1.264-1.04-2.947-1.606-4.485-2.285-1.88-.83-3.69-.785-5.243.78-1.86 1.874-3.78 1.588-5.613.03-2.517-2.142-4.887-1.74-7.483-.05-3.07 1.996-6.25 3.837-9.48 5.575-1.862 1.005-3.707.84-5.607-.475-2.76-1.91-5.928-2.147-9.07-.974-2.455.918-4.826 2.066-7.224 3.136-2.157.96-4.13 2.01-6.785 1.17-1.345-.423-3.31.347-4.734 1.08-3.406 1.75-6.58 2.875-9.816-.343-6.84 4.376-12.44 5.33-18.196 5.27-4.82-.052-9.674-.57-14.44-1.334-3.732-.6-7.298-.918-10.84.63-3.66 1.602-7.033 1.795-10.163-1.377-5.074-.26-6.326.69-7.655 1.317-2.283 1.077-4.412 1.272-6.22-.96-2.588-3.188-5.918-4.11-9.892-3.168-2.806.666-4.96-.226-6.232-2.94-.39-.83-.942-1.587-1.07-1.796-6.03 1.205-11.63 2.5-17.29 3.393-3.94.62-7.698-.018-10.866-2.942-1.902-1.754-4.1-2.443-6.47-.268-10.4.227-17.254 1.172-23.985 3.8-2.067.808-4.784.41-7.11.014-3.475-.59-6.226.03-9.012 2.378-1.888 1.59-4.625 2.19-7 3.19-5.31-1.01-9.35-2.204-13.43-3.25-5.8 1.834-8.215 1.195-10.225-.812-2.938-2.936-6.13-4.115-10.278-3.092-2.92.72-5.415-.417-7.11-2.956-1.54-2.312-3.67-3.15-6.42-3.313-1.515-.092-2.936-1.252-4.468-1.707-5.104-.243-6.522.643-7.998.728-3.438.203-6.863-.233-10.11 1.69-2.212 1.308-4.37.002-5.897-1.72-1.64-1.854-3.486-2.322-5.89-2.145-3.405.252-6.727.502-10.17-1.072-1.815-.828-4.62.445-6.968.836-2.156.356-4.28.918-6.444 1.185-5.32.656-10.652 1.206-15.982 1.773-4.078.434-8.196.61-12.225 1.31-2.837.495-5.764 1.286-8.274 2.635-3.99 2.145-7.874 2.722-12.112 1.137-1.87-.7-3.876-1.093-5.662-1.952-5.81-2.795-11.546-2.447-17.437-.223-5.608 2.117-11.312 3.985-16.99 5.91-3.592 1.22-7.207 1.272-10.867.146-5.148-1.586-10.112-1.4-14.96 1.332-2.933 1.652-5.877 1.534-8.872-.57-4.04-2.837-8.44-5.163-12.55-7.91-2.55-1.702-5.163-2.126-8.105-1.636-2.284.38-4.6.57-6.91.792-9.825-3.066-16.852 1.247-23.862-.13-4.932 3.662-7.585 3.873-10.355 3.54-9.465-1.134-18.994-1.588-28.348-3.863-6.23-1.516-7.603-.12-9.67 5.837-.287.832-1.692 1.638-2.687 1.8-2.622.427-5.385.16-7.937.79-2.667.657-5.013 1.343-7.336-.822-.657-.61-1.884-.617-3.215-1.01.11 1.325.185 2.21.33 3.932-2.485-.51-4.713-.964-8.028-1.643-4.898 2.813-11.424 5.043-18.4 5.847-4.726.544-9.48 1.126-13.425-2.596-6.473 1.913-11.156-.112-15.663.428-2.643.318-5.326.74-7.844 1.56-3.403 1.11-6.68 3.063-9.845-.382-6.428.852-11.55-3.424-17.532-3.483-1.58-.016-3.57-.455-4.647-1.466-2.812-2.634-6.076-3.064-9.627-3.054-2.742.01-5.486-.074-8.22-.218-6.673-4.304-11.197-2.278-15.33-2.64-.732-.065-1.625.808-2.325 1.39-4.622 3.834-9.358 7.067-15.95 5.97-3.088-.513-6.313-.238-9.477-.274-1.834-.02-3.407-.024-5.117 1.502-1.257 1.124-4.165 1.336-5.958.767-4.877-1.55-9.635-3.552-14.273-5.727-2.446-1.147-4.468-1.79-7.12-.485-1.285.632-3.3.374-4.786-.1-3.198-1.017-6.202-2.662-9.42-3.58-1.328-.38-3.015.4-4.52.74-1.687.38-3.333 1.04-5.036 1.225-8.885-3.984-14.567-3.89-20.422-.572-3.116 1.765-6.484 1.307-9.67-.44-1.837-1.007-3.756-1.908-5.72-2.632-3.464-1.277-6.853-.87-10.037.965-1.824 1.05-3.602 2.18-5.374 3.315-3.245 2.076-6.66 2.578-10.225.994-4.41-1.96-8.8-1.87-13.19-.043-3.968 1.652-7.466 1.126-10.95-1.496-1.683-1.267-4.02-1.652-6.022-2.524-2.256-.983-4.452-2.1-6.707-3.085-6.202-1.144-9.266-1.097-12.325-1.043-2.343.042-4.26-.557-6.424-1.777-2.28-1.287-5.457-1.243-8.256-1.32-4.102-.112-8.242-.054-12.31.413-1.97.227-3.906 1.39-5.69 2.414-2.687 1.54-5.3 2.542-8.34 1.01-1.774-.895-3.15-.426-4.232 1.33-1.523 2.47-3.8 3.3-6.725 2.993-4.294-.453-8.612-.74-12.928-.884-1.08-.034-2.366.516-3.24 1.2-1.834 1.436-3.46 1.862-5.76.815-1.226-.56-2.998.015-4.516.166-7.548-1.443-13.323-.048-17.628-3.858-1.064-.943-2.58-1.405-3.93-1.992-1.98-.86-3.875-.885-5.53.79-1.74 1.768-3.626 1.552-5.35.077-2.61-2.23-5.043-1.905-7.747-.102-2.96 1.973-6.06 3.76-9.192 5.452-1.965 1.06-3.892.903-5.904-.467-3.223-2.194-6.8-1.965-10.28-.51C7.11 26.473 4.07 27.92 1 29.3V.96C481.244.96 961.49.96 1441.734.96v33.38c-2.103-.017-4.212.046-6.31-.07z" fill="#FFFFFF" fill-rule="evenodd"/></svg>